<mxfile host="app.diagrams.net" agent="Mozilla/5.0 (Windows NT 10.0; Win64; x64) AppleWebKit/537.36 (KHTML, like Gecko) Chrome/133.0.0.0 Safari/537.36" version="26.0.16">
  <diagram name="Seite-1" id="_D5j7GUgr2ZBBeUll-wA">
    <mxGraphModel dx="182" dy="283" grid="1" gridSize="10" guides="1" tooltips="1" connect="1" arrows="1" fold="1" page="1" pageScale="1" pageWidth="827" pageHeight="1169" math="0" shadow="0">
      <root>
        <mxCell id="0" />
        <mxCell id="1" parent="0" />
        <mxCell id="9Gs93-xfaeQLUpTrcQ6k-6" value="" style="triangle;whiteSpace=wrap;html=1;direction=south;rotation=-180;" vertex="1" parent="1">
          <mxGeometry x="160" y="330" width="60" height="60" as="geometry" />
        </mxCell>
        <mxCell id="9Gs93-xfaeQLUpTrcQ6k-4" value="" style="endArrow=classic;html=1;rounded=0;" edge="1" parent="1">
          <mxGeometry width="50" height="50" relative="1" as="geometry">
            <mxPoint x="190" y="390" as="sourcePoint" />
            <mxPoint x="190" y="310" as="targetPoint" />
          </mxGeometry>
        </mxCell>
        <mxCell id="9Gs93-xfaeQLUpTrcQ6k-7" value="" style="endArrow=classic;html=1;rounded=0;" edge="1" parent="1">
          <mxGeometry width="50" height="50" relative="1" as="geometry">
            <mxPoint x="90" y="390" as="sourcePoint" />
            <mxPoint x="300" y="390" as="targetPoint" />
          </mxGeometry>
        </mxCell>
        <mxCell id="9Gs93-xfaeQLUpTrcQ6k-9" value="" style="triangle;whiteSpace=wrap;html=1;direction=south;rotation=-180;" vertex="1" parent="1">
          <mxGeometry x="100" y="330" width="60" height="60" as="geometry" />
        </mxCell>
        <mxCell id="9Gs93-xfaeQLUpTrcQ6k-11" value="" style="triangle;whiteSpace=wrap;html=1;direction=south;rotation=-180;" vertex="1" parent="1">
          <mxGeometry x="220" y="330" width="60" height="60" as="geometry" />
        </mxCell>
        <mxCell id="9Gs93-xfaeQLUpTrcQ6k-22" value="2ω" style="text;whiteSpace=wrap;" vertex="1" parent="1">
          <mxGeometry x="240" y="384" width="40" height="40" as="geometry" />
        </mxCell>
        <mxCell id="9Gs93-xfaeQLUpTrcQ6k-23" value="ω" style="text;whiteSpace=wrap;" vertex="1" parent="1">
          <mxGeometry x="290" y="385" width="40" height="40" as="geometry" />
        </mxCell>
        <mxCell id="9Gs93-xfaeQLUpTrcQ6k-24" value="0" style="text;whiteSpace=wrap;" vertex="1" parent="1">
          <mxGeometry x="185" y="384" width="40" height="40" as="geometry" />
        </mxCell>
        <mxCell id="9Gs93-xfaeQLUpTrcQ6k-25" value="2ω" style="text;whiteSpace=wrap;" vertex="1" parent="1">
          <mxGeometry x="120" y="384" width="40" height="40" as="geometry" />
        </mxCell>
      </root>
    </mxGraphModel>
  </diagram>
</mxfile>
